<svg width="65" height="10" viewBox="0 0 65 10" fill="none" xmlns="http://www.w3.org/2000/svg">
<path d="M0.481481 0H0V10H0.481481V0Z" fill="black"/>
<path d="M1.44443 0H0.962952V10H1.44443V0Z" fill="black"/>
<path d="M2.40738 0H1.9259V10H2.40738V0Z" fill="black"/>
<path d="M4.33335 0H3.85187V10H4.33335V0Z" fill="black"/>
<path d="M6.25926 0H4.81482V10H6.25926V0Z" fill="black"/>
<path d="M7.2222 0H6.74072V10H7.2222V0Z" fill="black"/>
<path d="M10.1111 0H8.66669V10H10.1111V0Z" fill="black"/>
<path d="M11.0741 0H10.5926V10H11.0741V0Z" fill="black"/>
<path d="M13 0H12.5185V10H13V0Z" fill="black"/>
<path d="M14.926 0H13.4815V10H14.926V0Z" fill="black"/>
<path d="M15.8889 0H15.4074V10H15.8889V0Z" fill="black"/>
<path d="M18.7778 0H17.3333V10H18.7778V0Z" fill="black"/>
<path d="M19.7408 0H19.2593V10H19.7408V0Z" fill="black"/>
<path d="M21.6667 0H21.1852V10H21.6667V0Z" fill="black"/>
<path d="M23.5926 0H22.1481V10H23.5926V0Z" fill="black"/>
<path d="M24.5556 0H24.0741V10H24.5556V0Z" fill="black"/>
<path d="M27.4444 0H26V10H27.4444V0Z" fill="black"/>
<path d="M28.4074 0H27.9259V10H28.4074V0Z" fill="black"/>
<path d="M30.3333 0H29.8519V10H30.3333V0Z" fill="black"/>
<path d="M32.2593 0H30.8148V10H32.2593V0Z" fill="black"/>
<path d="M33.2222 0H32.7407V10H33.2222V0Z" fill="black"/>
<path d="M36.1111 0H34.6667V10H36.1111V0Z" fill="black"/>
<path d="M37.0741 0H36.5926V10H37.0741V0Z" fill="black"/>
<path d="M39 0H38.5185V10H39V0Z" fill="black"/>
<path d="M40.926 0H39.4815V10H40.926V0Z" fill="black"/>
<path d="M41.8889 0H41.4074V10H41.8889V0Z" fill="black"/>
<path d="M44.7778 0H43.3333V10H44.7778V0Z" fill="black"/>
<path d="M45.7408 0H45.2593V10H45.7408V0Z" fill="black"/>
<path d="M47.6667 0H47.1852V10H47.6667V0Z" fill="black"/>
<path d="M49.5926 0H48.1481V10H49.5926V0Z" fill="black"/>
<path d="M50.5556 0H50.0741V10H50.5556V0Z" fill="black"/>
<path d="M53.4444 0H52V10H53.4444V0Z" fill="black"/>
<path d="M54.4074 0H53.9259V10H54.4074V0Z" fill="black"/>
<path d="M56.3333 0H55.8519V10H56.3333V0Z" fill="black"/>
<path d="M58.2593 0H56.8148V10H58.2593V0Z" fill="black"/>
<path d="M59.2222 0H58.7407V10H59.2222V0Z" fill="black"/>
<path d="M62.1111 0H60.6667V10H62.1111V0Z" fill="black"/>
<path d="M64.037 0H62.5926V10H64.037V0Z" fill="black"/>
<path d="M65 0H64.5185V10H65V0Z" fill="black"/>
</svg>
