<svg width="274" height="57" viewBox="0 0 274 57" fill="none" xmlns="http://www.w3.org/2000/svg">
<path d="M17.4471 38.802C17.4471 42.6195 21.2531 44.5282 28.8651 44.5282C34.0084 44.5282 40.466 42.5852 48.238 38.6992L51.7354 36.8476C57.0387 34.1502 60.0332 33.5673 60.719 35.0989C60.9019 35.5103 60.9933 35.9904 60.9933 36.539C60.9933 37.0648 60.7647 37.6134 60.3075 38.1848C59.8732 38.7335 59.2789 39.3506 58.5245 40.0364C57.7702 40.6993 56.8901 41.4079 55.8843 42.1623C54.8785 42.8938 53.8156 43.6253 52.6955 44.3567L49.3353 46.4483C48.1923 47.1341 46.9579 47.8084 45.6321 48.4713L40.626 50.9401C32.7854 54.5975 25.3906 56.4262 18.4415 56.4262C12.361 56.4262 7.68638 55.2261 4.41756 52.826C1.49162 50.7001 0.0286497 47.957 0.0286497 44.5968C0.0286497 39.9564 2.12024 35.2818 6.30341 30.5728C9.91512 26.5268 14.8641 22.6865 21.1503 19.052C26.6364 15.8746 32.4883 13.2687 38.7059 11.2342C44.5806 9.29121 49.3467 8.31971 53.0041 8.31971C53.7813 8.31971 54.4328 8.57116 54.9585 9.07405C55.9186 9.96555 56.3987 10.8456 56.3987 11.7143C56.3987 15.0974 54.9928 17.829 52.1812 19.9092C49.781 21.6693 46.9808 22.5494 43.7806 22.5494C40.5803 22.5494 38.1801 22.2293 36.58 21.5893C30.6138 23.898 25.7678 26.9954 22.0418 30.8814C20.4873 32.5044 19.333 34.0245 18.5786 35.4418C17.8243 36.859 17.4471 37.9791 17.4471 38.802ZM102.654 29.7156C103.751 29.7156 104.299 30.3328 104.299 31.5672C104.299 32.3901 104.014 33.4302 103.442 34.6874C102.894 35.9218 102.094 37.0876 101.042 38.1848C99.9905 39.2592 98.779 40.3793 97.4075 41.5451C96.0588 42.7109 94.4701 43.9338 92.6414 45.2139C90.8356 46.494 88.8354 47.7627 86.641 49.0199C84.4465 50.2772 82.1149 51.4087 79.6461 52.4145C74.1829 54.6547 68.891 55.7747 63.7706 55.7747C59.8618 55.7747 56.4444 54.7575 53.5184 52.7231C50.4553 50.5972 48.9238 48.0142 48.9238 44.9739C48.9238 40.1964 51.4954 35.6589 56.6387 31.3615C61.0733 27.6583 66.2966 24.7895 72.3084 22.7551C75.9659 21.5207 79.0632 20.9035 81.6006 20.9035C83.6579 20.9035 85.3951 21.4064 86.8124 22.4122C88.3211 23.5094 89.0754 24.9838 89.0754 26.8354C89.0754 29.7385 86.7781 32.9502 82.1835 36.4704C81.452 37.0419 80.7891 37.5219 80.1948 37.9105L78.9604 38.7335C76.6745 40.3336 73.1999 42.128 68.5367 44.1167C69.9768 44.8711 71.3141 45.2482 72.5485 45.2482C73.8057 45.2482 74.9258 45.0997 75.9087 44.8025C76.9145 44.5053 78.046 44.0824 79.3033 43.5338C80.5605 42.9852 81.8977 42.3337 83.315 41.5794C84.7551 40.8022 86.2066 39.9564 87.6696 39.042C90.9384 37.0076 93.7729 34.9274 96.1731 32.8016C97.4304 31.6358 99.0305 30.71 100.973 30.0242C101.614 29.8185 102.174 29.7156 102.654 29.7156ZM64.8336 39.3506L66.7194 38.3906C67.3366 38.0705 67.8852 37.7734 68.3653 37.4991C72.9828 34.8474 75.6115 33.213 76.2516 32.5958C76.8916 31.9787 77.2117 31.5558 77.2117 31.3272C77.2117 31.0757 77.1431 30.79 77.0059 30.47C76.8688 30.1499 76.6859 29.8642 76.4573 29.6128C75.9087 28.9727 75.3258 28.6527 74.7086 28.6527C74.0914 28.6527 73.4057 28.767 72.6513 28.9956C71.9198 29.2242 71.1769 29.5442 70.4226 29.9556C69.6682 30.3442 68.9368 30.8243 68.2281 31.3958C67.5424 31.9444 66.9366 32.5387 66.4108 33.1787C65.1993 34.6189 64.5936 35.8647 64.5936 36.9162C64.5936 37.9677 64.6736 38.7792 64.8336 39.3506ZM136.565 30.71C138.028 30.71 138.759 31.3157 138.759 32.5273C138.759 34.0131 137.868 35.7847 136.085 37.842C133.136 41.2708 129.661 44.6082 125.661 47.8541C119.146 53.066 113.329 55.6719 108.208 55.6719C104.528 55.6719 101.511 54.0718 99.1562 50.8715C96.7103 47.5341 95.4873 43.0538 95.4873 37.4305C95.4873 30.0471 99.0876 21.8865 106.288 12.9486C110.86 7.25677 115.169 3.39362 119.215 1.35918C120.472 0.71913 121.432 0.399106 122.095 0.399106C122.781 0.399106 123.398 0.5134 123.947 0.741989C124.518 0.947719 125.044 1.24488 125.524 1.63349C126.644 2.5707 127.204 3.70221 127.204 5.02803C127.204 6.35384 126.838 7.93111 126.107 9.75982C125.375 11.5657 124.312 13.4972 122.918 15.5545C119.969 19.9206 115.98 24.1038 110.951 28.1041C109.648 30.5957 108.997 33.5902 108.997 37.0876C108.997 38.6649 109.5 40.1507 110.506 41.5451C111.534 42.9395 112.666 43.6367 113.9 43.6367C115.592 43.6367 118.826 41.888 123.604 38.3906L129.707 33.6931C132.199 31.7043 134.485 30.71 136.565 30.71ZM152.817 21.5207C153.046 21.9779 153.16 22.5837 153.16 23.338C153.16 24.0695 152.783 24.9038 152.029 25.841C152.623 26.4582 153.377 27.1783 154.292 28.0012C155.229 28.8013 156.132 29.6813 157.001 30.6414C159.104 32.9959 160.155 35.2475 160.155 37.3962C160.155 38.8135 159.184 40.5393 157.241 42.5737C156.646 43.2138 155.995 43.8081 155.286 44.3567C157.664 43.4424 160.521 41.6251 163.858 38.9049L167.87 35.6132C170.202 33.6702 171.756 32.5501 172.533 32.253C173.333 31.9558 174.053 31.8072 174.693 31.8072C175.333 31.8072 175.951 31.9672 176.545 32.2872C177.162 32.6073 177.471 33.133 177.471 33.8645C177.471 34.5731 177.356 35.2703 177.128 35.9561C176.899 36.619 176.625 37.2362 176.305 37.8077C175.848 38.6306 175.185 39.4764 174.316 40.345C171.916 42.608 169.584 44.6882 167.321 46.5855C165.081 48.4599 162.761 50.0715 160.361 51.4201C155.286 54.2546 149.663 55.6719 143.491 55.6719C140.039 55.6719 137.045 54.7918 134.507 53.0317C133.456 52.3002 132.644 51.5459 132.073 50.7687C131.524 49.9686 131.25 49.3514 131.25 48.9171C131.25 48.4599 131.399 47.9913 131.696 47.5113C131.993 47.0084 132.393 46.494 132.896 45.9683C133.399 45.4425 133.97 44.9168 134.61 44.391C135.273 43.8653 135.948 43.3967 136.633 42.9852C138.233 42.048 139.422 41.5794 140.199 41.5794C140.999 41.5794 141.605 41.6822 142.017 41.888C142.428 42.0708 142.805 42.2766 143.148 42.5052C144.085 43.1452 144.748 43.4652 145.137 43.4652C146.074 43.4652 146.543 42.8252 146.543 41.5451C146.543 40.3564 145.914 38.9278 144.657 37.2591C144.154 36.5733 143.628 35.899 143.08 35.236C142.531 34.5731 142.074 33.9217 141.708 33.2816C140.977 34.1274 140.062 34.996 138.965 35.8875L135.639 38.6992C133.33 40.6879 131.193 41.6365 129.227 41.5451C128.084 41.4537 127.513 40.185 127.513 37.7391C127.513 37.3048 127.547 36.8819 127.616 36.4704C127.73 35.7618 128.427 34.9046 129.707 33.8988C130.987 32.893 131.913 32.2072 132.484 31.8415C133.079 31.4529 133.582 31.11 133.993 30.8128L137.628 28.3441C137.628 26.0125 138.976 23.8752 141.674 21.9322C144.234 20.1035 146.771 19.1891 149.286 19.1891C150.886 19.1891 152.063 19.9663 152.817 21.5207ZM219.302 29.7156C220.4 29.7156 220.948 30.3328 220.948 31.5672C220.948 32.3901 220.663 33.4302 220.091 34.6874C219.543 35.9218 218.742 37.0876 217.691 38.1848C216.639 39.2592 215.428 40.3793 214.056 41.5451C212.708 42.7109 211.119 43.9338 209.29 45.2139C207.484 46.494 205.484 47.7627 203.29 49.0199C201.095 50.2772 198.764 51.4087 196.295 52.4145C190.832 54.6547 185.54 55.7747 180.42 55.7747C176.511 55.7747 173.093 54.7575 170.167 52.7231C167.104 50.5972 165.573 48.0142 165.573 44.9739C165.573 40.1964 168.144 35.6589 173.288 31.3615C177.722 27.6583 182.945 24.7895 188.957 22.7551C192.615 21.5207 195.712 20.9035 198.249 20.9035C200.307 20.9035 202.044 21.4064 203.461 22.4122C204.97 23.5094 205.724 24.9838 205.724 26.8354C205.724 29.7385 203.427 32.9502 198.832 36.4704C198.101 37.0419 197.438 37.5219 196.844 37.9105L195.609 38.7335C193.323 40.3336 189.849 42.128 185.186 44.1167C186.626 44.8711 187.963 45.2482 189.197 45.2482C190.455 45.2482 191.575 45.0997 192.558 44.8025C193.563 44.5053 194.695 44.0824 195.952 43.5338C197.209 42.9852 198.547 42.3337 199.964 41.5794C201.404 40.8022 202.856 39.9564 204.318 39.042C207.587 37.0076 210.422 34.9274 212.822 32.8016C214.079 31.6358 215.679 30.71 217.622 30.0242C218.262 29.8185 218.822 29.7156 219.302 29.7156ZM181.482 39.3506L183.368 38.3906C183.986 38.0705 184.534 37.7734 185.014 37.4991C189.632 34.8474 192.26 33.213 192.9 32.5958C193.541 31.9787 193.861 31.5558 193.861 31.3272C193.861 31.0757 193.792 30.79 193.655 30.47C193.518 30.1499 193.335 29.8642 193.106 29.6128C192.558 28.9727 191.975 28.6527 191.357 28.6527C190.74 28.6527 190.055 28.767 189.3 28.9956C188.569 29.2242 187.826 29.5442 187.071 29.9556C186.317 30.3442 185.586 30.8243 184.877 31.3958C184.191 31.9444 183.585 32.5387 183.06 33.1787C181.848 34.6189 181.242 35.8647 181.242 36.9162C181.242 37.9677 181.322 38.7792 181.482 39.3506ZM272.244 29.167C272.975 29.167 273.341 29.7842 273.341 31.0186C273.341 33.1445 271.855 35.899 268.883 39.2821L266.929 41.2708C261.009 47.1912 255.431 51.1344 250.196 53.1003C246.95 54.3118 244.619 54.2546 243.201 52.9288C242.036 51.8087 241.11 50.0029 240.424 47.5113L239.601 44.5282L232.298 49.0199L228.08 51.4201C223.051 54.1632 219.28 55.5347 216.765 55.5347C213.542 55.5347 210.856 54.2889 208.707 51.7973C206.65 49.4428 205.621 46.7112 205.621 43.6024C205.621 40.5393 206.844 37.8077 209.29 35.4075C212.788 31.9787 218.308 28.8356 225.852 25.9782C232.984 23.3037 238.744 21.9665 243.133 21.9665C244.619 21.9665 245.362 22.6979 245.362 24.1609C245.362 25.1667 245.167 25.921 244.779 26.4239C244.39 26.9268 243.59 27.4412 242.379 27.9669L238.058 29.8185C231.658 32.493 226.972 35.2703 224 38.1506C223.154 38.9506 222.731 39.7278 222.731 40.4822C222.731 41.2365 223.337 41.6137 224.549 41.6137C225.737 41.6137 228.503 40.3336 232.846 37.7734L235.692 36.0933C240.104 33.4416 243.796 32.1158 246.767 32.1158C249.282 32.1158 250.951 33.2245 251.774 35.4418C251.979 36.0361 252.174 36.6419 252.356 37.2591C252.539 37.8534 252.722 38.3906 252.905 38.8706C253.316 39.9907 253.682 40.5507 254.002 40.5507C254.345 40.5507 254.825 40.3907 255.442 40.0707C256.06 39.7278 256.734 39.3049 257.465 38.802C258.22 38.2763 258.997 37.7048 259.797 37.0876L263.946 33.7616C267.626 30.6986 270.392 29.167 272.244 29.167Z" fill="#D6E5E1"/>
</svg>
