<svg width="274" height="57" viewBox="0 0 274 57" fill="none" xmlns="http://www.w3.org/2000/svg">
<mask id="path-1-outside-1_7_354" maskUnits="userSpaceOnUse" x="-1" y="-1.08246" width="276" height="59" fill="black">
<rect fill="white" x="-1" y="-1.08246" width="276" height="59"/>
<path d="M17.4471 38.802C17.4471 42.6195 21.2531 44.5282 28.8651 44.5282C34.0084 44.5282 40.466 42.5852 48.238 38.6992L51.7354 36.8476C57.0387 34.1502 60.0332 33.5673 60.719 35.0989C60.9019 35.5103 60.9933 35.9904 60.9933 36.539C60.9933 37.0648 60.7647 37.6134 60.3075 38.1848C59.8732 38.7335 59.2789 39.3506 58.5245 40.0364C57.7702 40.6993 56.8901 41.4079 55.8843 42.1623C54.8785 42.8938 53.8156 43.6253 52.6955 44.3567L49.3353 46.4483C48.1923 47.1341 46.9579 47.8084 45.6321 48.4713L40.626 50.9401C32.7854 54.5975 25.3906 56.4262 18.4415 56.4262C12.361 56.4262 7.68638 55.2261 4.41756 52.826C1.49162 50.7001 0.0286497 47.957 0.0286497 44.5968C0.0286497 39.9564 2.12024 35.2818 6.30341 30.5728C9.91512 26.5268 14.8641 22.6865 21.1503 19.052C26.6364 15.8746 32.4883 13.2687 38.7059 11.2342C44.5806 9.29121 49.3467 8.31971 53.0041 8.31971C53.7813 8.31971 54.4328 8.57116 54.9585 9.07405C55.9186 9.96555 56.3987 10.8456 56.3987 11.7143C56.3987 15.0974 54.9928 17.829 52.1812 19.9092C49.781 21.6693 46.9808 22.5494 43.7806 22.5494C40.5803 22.5494 38.1801 22.2293 36.58 21.5893C30.6138 23.898 25.7678 26.9954 22.0418 30.8814C20.4873 32.5044 19.333 34.0245 18.5786 35.4418C17.8243 36.859 17.4471 37.9791 17.4471 38.802ZM102.654 29.7156C103.751 29.7156 104.299 30.3328 104.299 31.5672C104.299 32.3901 104.014 33.4302 103.442 34.6874C102.894 35.9218 102.094 37.0876 101.042 38.1848C99.9905 39.2592 98.779 40.3793 97.4075 41.5451C96.0588 42.7109 94.4701 43.9338 92.6414 45.2139C90.8356 46.494 88.8354 47.7627 86.641 49.0199C84.4465 50.2772 82.1149 51.4087 79.6461 52.4145C74.1829 54.6547 68.891 55.7747 63.7706 55.7747C59.8618 55.7747 56.4444 54.7575 53.5184 52.7231C50.4553 50.5972 48.9238 48.0142 48.9238 44.9739C48.9238 40.1964 51.4954 35.6589 56.6387 31.3615C61.0733 27.6583 66.2966 24.7895 72.3084 22.7551C75.9659 21.5207 79.0632 20.9035 81.6006 20.9035C83.6579 20.9035 85.3951 21.4064 86.8124 22.4122C88.3211 23.5094 89.0754 24.9838 89.0754 26.8354C89.0754 29.7385 86.7781 32.9502 82.1835 36.4704C81.452 37.0419 80.7891 37.5219 80.1948 37.9105L78.9604 38.7335C76.6745 40.3336 73.1999 42.128 68.5367 44.1167C69.9768 44.8711 71.3141 45.2482 72.5485 45.2482C73.8057 45.2482 74.9258 45.0997 75.9087 44.8025C76.9145 44.5053 78.046 44.0824 79.3033 43.5338C80.5605 42.9852 81.8977 42.3337 83.315 41.5794C84.7551 40.8022 86.2066 39.9564 87.6696 39.042C90.9384 37.0076 93.7729 34.9274 96.1731 32.8016C97.4304 31.6358 99.0305 30.71 100.973 30.0242C101.614 29.8185 102.174 29.7156 102.654 29.7156ZM64.8336 39.3506L66.7194 38.3906C67.3366 38.0705 67.8852 37.7734 68.3653 37.4991C72.9828 34.8474 75.6115 33.213 76.2516 32.5958C76.8916 31.9787 77.2117 31.5558 77.2117 31.3272C77.2117 31.0757 77.1431 30.79 77.0059 30.47C76.8688 30.1499 76.6859 29.8642 76.4573 29.6128C75.9087 28.9727 75.3258 28.6527 74.7086 28.6527C74.0914 28.6527 73.4057 28.767 72.6513 28.9956C71.9198 29.2242 71.1769 29.5442 70.4226 29.9556C69.6682 30.3442 68.9368 30.8243 68.2281 31.3958C67.5424 31.9444 66.9366 32.5387 66.4108 33.1787C65.1993 34.6189 64.5936 35.8647 64.5936 36.9162C64.5936 37.9677 64.6736 38.7792 64.8336 39.3506ZM136.565 30.71C138.028 30.71 138.759 31.3157 138.759 32.5273C138.759 34.0131 137.868 35.7847 136.085 37.842C133.136 41.2708 129.661 44.6082 125.661 47.8541C119.146 53.066 113.329 55.6719 108.208 55.6719C104.528 55.6719 101.511 54.0718 99.1562 50.8715C96.7103 47.5341 95.4873 43.0538 95.4873 37.4305C95.4873 30.0471 99.0876 21.8865 106.288 12.9486C110.86 7.25677 115.169 3.39362 119.215 1.35918C120.472 0.71913 121.432 0.399106 122.095 0.399106C122.781 0.399106 123.398 0.5134 123.947 0.741989C124.518 0.947719 125.044 1.24488 125.524 1.63349C126.644 2.5707 127.204 3.70221 127.204 5.02803C127.204 6.35384 126.838 7.93111 126.107 9.75982C125.375 11.5657 124.312 13.4972 122.918 15.5545C119.969 19.9206 115.98 24.1038 110.951 28.1041C109.648 30.5957 108.997 33.5902 108.997 37.0876C108.997 38.6649 109.5 40.1507 110.506 41.5451C111.534 42.9395 112.666 43.6367 113.9 43.6367C115.592 43.6367 118.826 41.888 123.604 38.3906L129.707 33.6931C132.199 31.7043 134.485 30.71 136.565 30.71ZM152.817 21.5207C153.046 21.9779 153.16 22.5837 153.16 23.338C153.16 24.0695 152.783 24.9038 152.029 25.841C152.623 26.4582 153.377 27.1783 154.292 28.0012C155.229 28.8013 156.132 29.6813 157.001 30.6414C159.104 32.9959 160.155 35.2475 160.155 37.3962C160.155 38.8135 159.184 40.5393 157.241 42.5737C156.646 43.2138 155.995 43.8081 155.286 44.3567C157.664 43.4424 160.521 41.6251 163.858 38.9049L167.87 35.6132C170.202 33.6702 171.756 32.5501 172.533 32.253C173.333 31.9558 174.053 31.8072 174.693 31.8072C175.333 31.8072 175.951 31.9672 176.545 32.2872C177.162 32.6073 177.471 33.133 177.471 33.8645C177.471 34.5731 177.356 35.2703 177.128 35.9561C176.899 36.619 176.625 37.2362 176.305 37.8077C175.848 38.6306 175.185 39.4764 174.316 40.345C171.916 42.608 169.584 44.6882 167.321 46.5855C165.081 48.4599 162.761 50.0715 160.361 51.4201C155.286 54.2546 149.663 55.6719 143.491 55.6719C140.039 55.6719 137.045 54.7918 134.507 53.0317C133.456 52.3002 132.644 51.5459 132.073 50.7687C131.524 49.9686 131.25 49.3514 131.25 48.9171C131.25 48.4599 131.399 47.9913 131.696 47.5113C131.993 47.0084 132.393 46.494 132.896 45.9683C133.399 45.4425 133.97 44.9168 134.61 44.391C135.273 43.8653 135.948 43.3967 136.633 42.9852C138.233 42.048 139.422 41.5794 140.199 41.5794C140.999 41.5794 141.605 41.6822 142.017 41.888C142.428 42.0708 142.805 42.2766 143.148 42.5052C144.085 43.1452 144.748 43.4652 145.137 43.4652C146.074 43.4652 146.543 42.8252 146.543 41.5451C146.543 40.3564 145.914 38.9278 144.657 37.2591C144.154 36.5733 143.628 35.899 143.08 35.236C142.531 34.5731 142.074 33.9217 141.708 33.2816C140.977 34.1274 140.062 34.996 138.965 35.8875L135.639 38.6992C133.33 40.6879 131.193 41.6365 129.227 41.5451C128.084 41.4537 127.513 40.185 127.513 37.7391C127.513 37.3048 127.547 36.8819 127.616 36.4704C127.73 35.7618 128.427 34.9046 129.707 33.8988C130.987 32.893 131.913 32.2072 132.484 31.8415C133.079 31.4529 133.582 31.11 133.993 30.8128L137.628 28.3441C137.628 26.0125 138.976 23.8752 141.674 21.9322C144.234 20.1035 146.771 19.1891 149.286 19.1891C150.886 19.1891 152.063 19.9663 152.817 21.5207ZM219.302 29.7156C220.4 29.7156 220.948 30.3328 220.948 31.5672C220.948 32.3901 220.663 33.4302 220.091 34.6874C219.543 35.9218 218.742 37.0876 217.691 38.1848C216.639 39.2592 215.428 40.3793 214.056 41.5451C212.708 42.7109 211.119 43.9338 209.29 45.2139C207.484 46.494 205.484 47.7627 203.29 49.0199C201.095 50.2772 198.764 51.4087 196.295 52.4145C190.832 54.6547 185.54 55.7747 180.42 55.7747C176.511 55.7747 173.093 54.7575 170.167 52.7231C167.104 50.5972 165.573 48.0142 165.573 44.9739C165.573 40.1964 168.144 35.6589 173.288 31.3615C177.722 27.6583 182.945 24.7895 188.957 22.7551C192.615 21.5207 195.712 20.9035 198.249 20.9035C200.307 20.9035 202.044 21.4064 203.461 22.4122C204.97 23.5094 205.724 24.9838 205.724 26.8354C205.724 29.7385 203.427 32.9502 198.832 36.4704C198.101 37.0419 197.438 37.5219 196.844 37.9105L195.609 38.7335C193.323 40.3336 189.849 42.128 185.186 44.1167C186.626 44.8711 187.963 45.2482 189.197 45.2482C190.455 45.2482 191.575 45.0997 192.558 44.8025C193.563 44.5053 194.695 44.0824 195.952 43.5338C197.209 42.9852 198.547 42.3337 199.964 41.5794C201.404 40.8022 202.856 39.9564 204.318 39.042C207.587 37.0076 210.422 34.9274 212.822 32.8016C214.079 31.6358 215.679 30.71 217.622 30.0242C218.262 29.8185 218.822 29.7156 219.302 29.7156ZM181.482 39.3506L183.368 38.3906C183.986 38.0705 184.534 37.7734 185.014 37.4991C189.632 34.8474 192.26 33.213 192.9 32.5958C193.541 31.9787 193.861 31.5558 193.861 31.3272C193.861 31.0757 193.792 30.79 193.655 30.47C193.518 30.1499 193.335 29.8642 193.106 29.6128C192.558 28.9727 191.975 28.6527 191.357 28.6527C190.74 28.6527 190.055 28.767 189.3 28.9956C188.569 29.2242 187.826 29.5442 187.071 29.9556C186.317 30.3442 185.586 30.8243 184.877 31.3958C184.191 31.9444 183.585 32.5387 183.06 33.1787C181.848 34.6189 181.242 35.8647 181.242 36.9162C181.242 37.9677 181.322 38.7792 181.482 39.3506ZM272.244 29.167C272.975 29.167 273.341 29.7842 273.341 31.0186C273.341 33.1445 271.855 35.899 268.883 39.2821L266.929 41.2708C261.009 47.1912 255.431 51.1344 250.196 53.1003C246.95 54.3118 244.619 54.2546 243.201 52.9288C242.036 51.8087 241.11 50.0029 240.424 47.5113L239.601 44.5282L232.298 49.0199L228.08 51.4201C223.051 54.1632 219.28 55.5347 216.765 55.5347C213.542 55.5347 210.856 54.2889 208.707 51.7973C206.65 49.4428 205.621 46.7112 205.621 43.6024C205.621 40.5393 206.844 37.8077 209.29 35.4075C212.788 31.9787 218.308 28.8356 225.852 25.9782C232.984 23.3037 238.744 21.9665 243.133 21.9665C244.619 21.9665 245.362 22.6979 245.362 24.1609C245.362 25.1667 245.167 25.921 244.779 26.4239C244.39 26.9268 243.59 27.4412 242.379 27.9669L238.058 29.8185C231.658 32.493 226.972 35.2703 224 38.1506C223.154 38.9506 222.731 39.7278 222.731 40.4822C222.731 41.2365 223.337 41.6137 224.549 41.6137C225.737 41.6137 228.503 40.3336 232.846 37.7734L235.692 36.0933C240.104 33.4416 243.796 32.1158 246.767 32.1158C249.282 32.1158 250.951 33.2245 251.774 35.4418C251.979 36.0361 252.174 36.6419 252.356 37.2591C252.539 37.8534 252.722 38.3906 252.905 38.8706C253.316 39.9907 253.682 40.5507 254.002 40.5507C254.345 40.5507 254.825 40.3907 255.442 40.0707C256.06 39.7278 256.734 39.3049 257.465 38.802C258.22 38.2763 258.997 37.7048 259.797 37.0876L263.946 33.7616C267.626 30.6986 270.392 29.167 272.244 29.167Z"/>
</mask>
<path d="M48.238 38.6992L48.6484 39.5198L48.6579 39.5151L48.6673 39.5101L48.238 38.6992ZM51.7354 36.8476L51.3195 36.0298L51.3128 36.0332L51.3061 36.0367L51.7354 36.8476ZM60.719 35.0989L61.5574 34.7262L61.5564 34.7239L60.719 35.0989ZM60.3075 38.1848L59.591 37.6117L59.5881 37.6153L60.3075 38.1848ZM58.5245 40.0364L59.1302 40.7256L59.136 40.7205L59.1417 40.7153L58.5245 40.0364ZM55.8843 42.1623L56.4241 42.9044L56.4348 42.8963L55.8843 42.1623ZM52.6955 44.3567L53.1804 45.1357L53.1888 45.1304L53.1972 45.125L52.6955 44.3567ZM49.3353 46.4483L49.8073 47.2351L49.8138 47.2312L49.8201 47.2273L49.3353 46.4483ZM45.6321 48.4713L46.0379 49.2943L46.0425 49.292L45.6321 48.4713ZM40.626 50.9401L41.0139 51.7716L41.0229 51.7674L41.0318 51.763L40.626 50.9401ZM4.41756 52.826L4.9606 52.0864L4.95687 52.0837L4.41756 52.826ZM6.30341 30.5728L5.61893 29.9618L5.61746 29.9635L6.30341 30.5728ZM21.1503 19.052L21.6095 19.8463L21.6101 19.8459L21.1503 19.052ZM38.7059 11.2342L38.9912 12.1063L38.994 12.1053L38.7059 11.2342ZM54.9585 9.07405L54.3243 9.73717L54.3342 9.74641L54.9585 9.07405ZM52.1812 19.9092L52.7238 20.6491L52.7269 20.6468L52.1812 19.9092ZM36.58 21.5893L36.9208 20.7374L36.5856 20.6033L36.2489 20.7336L36.58 21.5893ZM22.0418 30.8814L21.3795 30.2464L21.3791 30.2468L22.0418 30.8814ZM16.5296 38.802C16.5296 39.9164 16.8099 40.9325 17.3966 41.8151C17.9796 42.6922 18.8297 43.3849 19.8903 43.9168C21.9854 44.9675 25.0121 45.4457 28.8651 45.4457V43.6107C25.1062 43.6107 22.4239 43.1345 20.7129 42.2765C19.8705 41.854 19.2934 41.3538 18.9249 40.7993C18.56 40.2504 18.3646 39.5964 18.3646 38.802H16.5296ZM28.8651 45.4457C34.217 45.4457 40.8256 43.4312 48.6484 39.5198L47.8277 37.8785C40.1065 41.7391 33.7997 43.6107 28.8651 43.6107V45.4457ZM48.6673 39.5101L52.1647 37.6585L51.3061 36.0367L47.8087 37.8883L48.6673 39.5101ZM52.1514 37.6654C54.7847 36.3261 56.7663 35.5543 58.1341 35.288C58.8208 35.1544 59.2712 35.1652 59.5427 35.2352C59.7729 35.2945 59.8403 35.3817 59.8816 35.4739L61.5564 34.7239C61.2548 34.0503 60.6907 33.636 60.0008 33.4582C59.3523 33.291 58.594 33.329 57.7835 33.4868C56.1567 33.8034 53.9895 34.6718 51.3195 36.0298L52.1514 37.6654ZM59.8805 35.4715C60.0012 35.743 60.0758 36.0914 60.0758 36.539H61.9108C61.9108 35.8894 61.8025 35.2777 61.5574 34.7262L59.8805 35.4715ZM60.0758 36.539C60.0758 36.7881 59.9684 37.14 59.5911 37.6117L61.024 38.758C61.561 38.0867 61.9108 37.3414 61.9108 36.539H60.0758ZM59.5881 37.6153C59.1954 38.1115 58.6398 38.6916 57.9073 39.3575L59.1417 40.7153C59.9179 40.0097 60.551 39.3554 61.0269 38.7544L59.5881 37.6153ZM57.9189 39.3472C57.1861 39.9912 56.3251 40.6848 55.3338 41.4283L56.4348 42.8963C57.4551 42.1311 58.3543 41.4075 59.1302 40.7256L57.9189 39.3472ZM55.3447 41.4202C54.3522 42.142 53.302 42.8648 52.1938 43.5885L53.1972 45.125C54.3292 44.3857 55.4049 43.6455 56.424 42.9043L55.3447 41.4202ZM52.2107 43.5778L48.8504 45.6694L49.8201 47.2273L53.1804 45.1357L52.2107 43.5778ZM48.8632 45.6616C47.7425 46.334 46.5289 46.9971 45.2218 47.6507L46.0425 49.292C47.387 48.6197 48.6422 47.9342 49.8073 47.2351L48.8632 45.6616ZM45.2263 47.6484L40.2202 50.1172L41.0318 51.763L46.0379 49.2942L45.2263 47.6484ZM40.2382 50.1086C32.49 53.7229 25.2279 55.5087 18.4415 55.5087V57.3438C25.5533 57.3438 33.0808 55.4722 41.0139 51.7716L40.2382 50.1086ZM18.4415 55.5087C12.4639 55.5087 8.01093 54.3261 4.96059 52.0864L3.87452 53.5655C7.36182 56.1261 12.2582 57.3438 18.4415 57.3438V55.5087ZM4.95687 52.0837C2.24736 50.115 0.946176 47.6381 0.946176 44.5968H-0.888876C-0.888876 48.2759 0.735874 51.2851 3.87824 53.5682L4.95687 52.0837ZM0.946176 44.5968C0.946176 40.2506 2.90159 35.7837 6.98936 31.1822L5.61746 29.9635C1.33888 34.7798 -0.888876 39.6622 -0.888876 44.5968H0.946176ZM6.9879 31.1838C10.517 27.2304 15.381 23.4475 21.6095 19.8463L20.691 18.2576C14.3472 21.9255 9.31327 25.8232 5.61893 29.9618L6.9879 31.1838ZM21.6101 19.8459C27.0392 16.7016 32.8324 14.1215 38.9912 12.1062L38.4205 10.3622C32.1441 12.4159 26.2336 15.0476 20.6904 18.258L21.6101 19.8459ZM38.994 12.1053C44.8307 10.1749 49.4893 9.23723 53.0041 9.23723V7.40218C49.2041 7.40218 44.3305 8.40752 38.4178 10.3631L38.994 12.1053ZM53.0041 9.23723C53.5628 9.23723 53.9817 9.40939 54.3243 9.73709L55.5928 8.41101C54.8839 7.73292 53.9999 7.40218 53.0041 7.40218V9.23723ZM54.3342 9.74641C55.2021 10.5523 55.4811 11.2063 55.4811 11.7143H57.3162C57.3162 10.4849 56.6351 9.37878 55.5829 8.40169L54.3342 9.74641ZM55.4811 11.7143C55.4811 14.7951 54.2226 17.2575 51.6355 19.1716L52.7269 20.6468C55.7631 18.4005 57.3162 15.3997 57.3162 11.7143H55.4811ZM51.6386 19.1693C49.4079 20.8051 46.8012 21.6318 43.7806 21.6318V23.4669C47.1604 23.4669 50.1541 22.5335 52.7238 20.6491L51.6386 19.1693ZM43.7806 21.6318C40.6144 21.6318 38.3558 21.3114 36.9208 20.7374L36.2392 22.4412C38.0045 23.1473 40.5462 23.4669 43.7806 23.4669V21.6318ZM36.2489 20.7336C30.1808 23.0818 25.2142 26.247 21.3795 30.2464L22.704 31.5164C26.3213 27.7439 31.0469 24.7143 36.9111 22.445L36.2489 20.7336ZM21.3791 30.2468C19.7878 31.9083 18.5748 33.4961 17.7687 35.0107L19.3886 35.8729C20.0911 34.5529 21.1869 33.1005 22.7044 31.5161L21.3791 30.2468ZM17.7687 35.0107C16.9988 36.4571 16.5296 37.7439 16.5296 38.802H18.3646C18.3646 38.2143 18.6497 37.261 19.3886 35.8729L17.7687 35.0107ZM103.442 34.6874L102.607 34.3077L102.604 34.3148L103.442 34.6874ZM101.042 38.1848L101.698 38.8267L101.704 38.8197L101.042 38.1848ZM97.4075 41.5451L96.8132 40.846L96.8075 40.851L97.4075 41.5451ZM92.6414 45.2139L92.1152 44.4623L92.1108 44.4654L92.6414 45.2139ZM79.6461 52.4145L79.3 51.5648L79.298 51.5656L79.6461 52.4145ZM53.5184 52.7231L54.0422 51.9698L54.0416 51.9693L53.5184 52.7231ZM56.6387 31.3615L56.0506 30.6572L56.0504 30.6574L56.6387 31.3615ZM72.3084 22.7551L72.015 21.8857L72.0143 21.886L72.3084 22.7551ZM86.8124 22.4122L87.3521 21.6701L87.3434 21.664L86.8124 22.4122ZM82.1835 36.4704L81.6254 35.7421L81.6186 35.7474L82.1835 36.4704ZM80.1948 37.9105L79.6926 37.1426L79.6858 37.1471L80.1948 37.9105ZM78.9604 38.7335L78.4514 37.97L78.4427 37.9758L78.4342 37.9818L78.9604 38.7335ZM68.5367 44.1167L68.1768 43.2727L66.3971 44.0317L68.111 44.9295L68.5367 44.1167ZM75.9087 44.8025L75.6487 43.9225L75.6432 43.9242L75.9087 44.8025ZM83.315 41.5794L83.7461 42.3893L83.7508 42.3868L83.315 41.5794ZM87.6696 39.042L87.1848 38.2631L87.1833 38.264L87.6696 39.042ZM96.1731 32.8016L96.7815 33.4884L96.7893 33.4815L96.797 33.4744L96.1731 32.8016ZM100.973 30.0242L100.693 29.1507L100.68 29.1547L100.668 29.159L100.973 30.0242ZM64.8336 39.3506L63.95 39.598L64.252 40.6763L65.2498 40.1683L64.8336 39.3506ZM66.7194 38.3906L67.1357 39.2083L67.1418 39.2051L66.7194 38.3906ZM68.3653 37.4991L68.8205 38.2957L68.8222 38.2947L68.3653 37.4991ZM76.4573 29.6128L75.7607 30.2099L75.7694 30.22L75.7784 30.23L76.4573 29.6128ZM72.6513 28.9956L72.3852 28.1174L72.3776 28.1198L72.6513 28.9956ZM70.4226 29.9556L70.8428 30.7713L70.8524 30.7663L70.8619 30.7611L70.4226 29.9556ZM68.2281 31.3958L68.8013 32.1122L68.8041 32.11L68.2281 31.3958ZM66.4108 33.1787L67.113 33.7695L67.1198 33.7611L66.4108 33.1787ZM102.654 30.6331C103.031 30.6331 103.154 30.7343 103.202 30.7881C103.268 30.8625 103.382 31.0666 103.382 31.5672H105.217C105.217 30.8334 105.056 30.1118 104.574 29.5689C104.073 29.0055 103.373 28.7981 102.654 28.7981V30.6331ZM103.382 31.5672C103.382 32.1993 103.156 33.0994 102.607 34.3078L104.278 35.0671C104.871 33.7609 105.217 32.581 105.217 31.5672H103.382ZM102.604 34.3148C102.103 35.4409 101.367 36.5199 100.38 37.55L101.704 38.8197C102.82 37.6554 103.684 36.4027 104.281 35.0601L102.604 34.3148ZM100.386 37.5431C99.3578 38.594 98.1674 39.6949 96.8133 40.846L98.0017 42.2442C99.3906 41.0636 100.623 39.9245 101.698 38.8266L100.386 37.5431ZM96.8075 40.851C95.4874 41.992 93.9244 43.1958 92.1152 44.4623L93.1676 45.9656C95.0158 44.6719 96.6302 43.4298 98.0075 42.2392L96.8075 40.851ZM92.1108 44.4654C90.3321 45.7263 88.3572 46.9792 86.1848 48.2238L87.0971 49.8161C89.3136 48.5462 91.339 47.2618 93.172 45.9625L92.1108 44.4654ZM86.1848 48.2238C84.0276 49.4597 81.7329 50.5736 79.3 51.5648L79.9923 53.2642C82.4969 52.2438 84.8654 51.0947 87.0971 49.8161L86.1848 48.2238ZM79.298 51.5656C73.9285 53.7673 68.7548 54.8572 63.7706 54.8572V56.6923C69.0273 56.6923 74.4372 55.542 79.9942 53.2634L79.298 51.5656ZM63.7706 54.8572C60.03 54.8572 56.7995 53.887 54.0422 51.9698L52.9946 53.4764C56.0892 55.6281 59.6935 56.6923 63.7706 56.6923V54.8572ZM54.0416 51.9693C51.1622 49.9709 49.8413 47.6438 49.8413 44.9739H48.0063C48.0063 48.3845 49.7485 51.2235 52.9953 53.4769L54.0416 51.9693ZM49.8413 44.9739C49.8413 40.565 52.2046 36.262 57.227 32.0656L56.0504 30.6574C50.7863 35.0558 48.0063 39.8278 48.0063 44.9739H49.8413ZM57.2268 32.0657C61.5662 28.4421 66.6874 25.6259 72.6025 23.6242L72.0143 21.886C65.9057 23.9532 60.5804 26.8746 56.0506 30.6572L57.2268 32.0657ZM72.6018 23.6244C76.2087 22.4071 79.2007 21.821 81.6006 21.821V19.986C78.9257 19.986 75.723 20.6343 72.015 21.8857L72.6018 23.6244ZM81.6006 21.821C83.5035 21.821 85.0462 22.2839 86.2814 23.1605L87.3434 21.664C85.7441 20.529 83.8123 19.986 81.6006 19.986V21.821ZM86.2727 23.1542C87.5461 24.0804 88.1579 25.28 88.1579 26.8354H89.993C89.993 24.6877 89.096 22.9385 87.3521 21.6702L86.2727 23.1542ZM88.1579 26.8354C88.1579 29.2688 86.1975 32.2392 81.6255 35.7421L82.7415 37.1988C87.3588 33.6611 89.993 30.2082 89.993 26.8354H88.1579ZM81.6186 35.7474C80.9016 36.3075 80.2601 36.7716 79.6926 37.1426L80.6969 38.6785C81.3181 38.2723 82.0023 37.7763 82.7483 37.1935L81.6186 35.7474ZM79.6858 37.1471L78.4514 37.97L79.4693 39.4969L80.7037 38.674L79.6858 37.1471ZM78.4342 37.9818C76.2264 39.5273 72.8207 41.2923 68.1768 43.2727L68.8967 44.9607C73.5792 42.9637 77.1226 41.1399 79.4865 39.4851L78.4342 37.9818ZM68.111 44.9295C69.6423 45.7316 71.1263 46.1658 72.5485 46.1658V44.3307C71.5019 44.3307 70.3113 44.0105 68.9625 43.3039L68.111 44.9295ZM72.5485 46.1658C73.8763 46.1658 75.0884 46.009 76.1742 45.6808L75.6432 43.9242C74.7631 44.1903 73.7351 44.3307 72.5485 44.3307V46.1658ZM76.1687 45.6824C77.22 45.3718 78.3881 44.9342 79.6702 44.3748L78.9363 42.6929C77.7039 43.2306 76.609 43.6388 75.6487 43.9226L76.1687 45.6824ZM79.6702 44.3748C80.9525 43.8152 82.3113 43.153 83.7461 42.3893L82.8839 40.7694C81.4842 41.5144 80.1685 42.1552 78.9363 42.6929L79.6702 44.3748ZM83.7508 42.3868C85.2089 41.5999 86.6773 40.7442 88.1559 39.8201L87.1833 38.264C85.736 39.1686 84.3013 40.0045 82.8792 40.7719L83.7508 42.3868ZM88.1544 39.821C91.4586 37.7646 94.336 35.6544 96.7815 33.4884L95.5648 32.1147C93.2098 34.2005 90.4183 36.2506 87.1848 38.2631L88.1544 39.821ZM96.797 33.4744C97.9457 32.4092 99.4307 31.5417 101.279 30.8894L100.668 29.159C98.6303 29.8782 96.915 30.8624 95.5493 32.1288L96.797 33.4744ZM101.254 30.8977C101.837 30.7104 102.299 30.6331 102.654 30.6331V28.7981C102.049 28.7981 101.39 28.9265 100.693 29.1507L101.254 30.8977ZM65.2498 40.1683L67.1357 39.2082L66.3032 37.5729L64.4173 38.533L65.2498 40.1683ZM67.1418 39.2051C67.7674 38.8807 68.3273 38.5775 68.8205 38.2957L67.9101 36.7024C67.4432 36.9692 66.9059 37.2604 66.2971 37.576L67.1418 39.2051ZM68.8222 38.2947C71.1347 36.9668 72.9568 35.8892 74.2844 35.0637C75.5756 34.261 76.4845 33.6459 76.8885 33.2563L75.6147 31.9354C75.3787 32.163 74.6531 32.6737 73.3155 33.5053C72.0144 34.3143 70.2134 35.3797 67.9084 36.7034L68.8222 38.2947ZM76.8885 33.2563C77.2232 32.9336 77.5018 32.6358 77.7033 32.3695C77.804 32.2363 77.9006 32.0915 77.9752 31.9396C78.0445 31.7984 78.1292 31.5833 78.1292 31.3272H76.2941C76.2941 31.1854 76.3388 31.1088 76.3281 31.1305C76.3228 31.1414 76.2993 31.1838 76.24 31.2621C76.1215 31.4187 75.92 31.6409 75.6147 31.9354L76.8885 33.2563ZM78.1292 31.3272C78.1292 30.9135 78.0178 30.5017 77.8493 30.1085L76.1626 30.8314C76.2684 31.0783 76.2941 31.238 76.2941 31.3272H78.1292ZM77.8493 30.1085C77.6729 29.697 77.4352 29.3244 77.1362 28.9956L75.7784 30.23C75.9367 30.404 76.0646 30.6028 76.1626 30.8314L77.8493 30.1085ZM77.154 29.0156C76.498 28.2504 75.6818 27.7352 74.7086 27.7352V29.5702C74.9698 29.5702 75.3194 29.6951 75.7607 30.2099L77.154 29.0156ZM74.7086 27.7352C73.9803 27.7352 73.2032 27.8696 72.3852 28.1175L72.9174 29.8737C73.6081 29.6644 74.2025 29.5702 74.7086 29.5702V27.7352ZM72.3776 28.1198C71.5823 28.3683 70.7841 28.7133 69.9832 29.1501L70.8619 30.7611C71.5697 30.3751 72.2573 30.08 72.925 29.8713L72.3776 28.1198ZM70.0024 29.14C69.189 29.559 68.4057 30.0739 67.6521 30.6815L68.8041 32.11C69.4679 31.5747 70.1475 31.1295 70.8428 30.7713L70.0024 29.14ZM67.655 30.6793C66.9224 31.2654 66.2704 31.9041 65.7019 32.5964L67.1198 33.7611C67.6028 33.1732 68.1624 32.6234 68.8013 32.1122L67.655 30.6793ZM65.7087 32.5881C64.4563 34.0768 63.676 35.5337 63.676 36.9162H65.5111C65.5111 36.1956 65.9423 35.1609 67.113 33.7694L65.7087 32.5881ZM63.676 36.9162C63.676 37.9975 63.7565 38.9069 63.95 39.598L65.7171 39.1032C65.5906 38.6514 65.5111 37.9378 65.5111 36.9162H63.676ZM136.085 37.842L135.391 37.241L135.389 37.2437L136.085 37.842ZM125.661 47.8541L126.234 48.5706L126.239 48.5666L125.661 47.8541ZM99.1562 50.8715L98.4161 51.4139L98.4171 51.4153L99.1562 50.8715ZM106.288 12.9486L107.003 13.5243L107.004 13.5232L106.288 12.9486ZM119.215 1.35918L119.627 2.17892L119.631 2.17684L119.215 1.35918ZM123.947 0.741989L123.594 1.58894L123.615 1.59763L123.636 1.60528L123.947 0.741989ZM125.524 1.63349L126.113 0.929801L126.107 0.925026L126.101 0.920343L125.524 1.63349ZM126.107 9.75982L126.957 10.1043L126.959 10.1006L126.107 9.75982ZM122.918 15.5545L122.158 15.0398L122.158 15.041L122.918 15.5545ZM110.951 28.1041L110.38 27.386L110.228 27.5069L110.138 27.6789L110.951 28.1041ZM110.506 41.5451L109.761 42.0819L109.767 42.0898L110.506 41.5451ZM123.604 38.3906L124.146 39.1309L124.155 39.1244L124.163 39.1177L123.604 38.3906ZM129.707 33.6931L130.267 34.4202L130.273 34.4152L130.279 34.4102L129.707 33.6931ZM136.565 31.6275C137.192 31.6275 137.493 31.761 137.625 31.871C137.725 31.9535 137.842 32.1133 137.842 32.5273H139.677C139.677 31.7297 139.428 30.9809 138.796 30.4576C138.197 29.9618 137.4 29.7925 136.565 29.7925V31.6275ZM137.842 32.5273C137.842 33.6709 137.137 35.2273 135.391 37.241L136.778 38.4429C138.599 36.342 139.677 34.3553 139.677 32.5273H137.842ZM135.389 37.2437C132.48 40.6258 129.046 43.9255 125.083 47.1417L126.239 48.5666C130.276 45.2908 133.791 41.9158 136.78 38.4402L135.389 37.2437ZM125.088 47.1377C118.641 52.2952 113.025 54.7544 108.208 54.7544V56.5894C113.633 56.5894 119.652 53.8367 126.234 48.5706L125.088 47.1377ZM108.208 54.7544C104.846 54.7544 102.093 53.3148 99.8953 50.3278L98.4171 51.4153C100.928 54.8287 104.21 56.5894 108.208 56.5894V54.7544ZM99.8963 50.3291C97.6006 47.1968 96.4049 42.9276 96.4049 37.4305H94.5698C94.5698 43.1799 95.82 47.8715 98.4161 51.4139L99.8963 50.3291ZM96.4049 37.4305C96.4049 30.3448 99.8646 22.3845 107.003 13.5243L105.574 12.373C98.3106 21.3884 94.5698 29.7494 94.5698 37.4305H96.4049ZM107.004 13.5232C111.538 7.87836 115.749 4.12903 119.627 2.17891L118.803 0.539447C114.589 2.65821 110.182 6.63518 105.573 12.3741L107.004 13.5232ZM119.631 2.17684C120.873 1.54438 121.666 1.31663 122.095 1.31663V-0.51842C121.199 -0.51842 120.071 -0.106124 118.799 0.541514L119.631 2.17684ZM122.095 1.31663C122.678 1.31663 123.173 1.41355 123.594 1.58894L124.3 -0.104958C123.623 -0.386747 122.884 -0.51842 122.095 -0.51842V1.31663ZM123.636 1.60528C124.109 1.77563 124.545 2.02153 124.947 2.34663L126.101 0.920343C125.543 0.468239 124.927 0.119804 124.257 -0.1213L123.636 1.60528ZM124.935 2.33717C125.871 3.12008 126.287 4.00361 126.287 5.02803H128.122C128.122 3.40081 127.417 2.02132 126.113 0.929801L124.935 2.33717ZM126.287 5.02803C126.287 6.19485 125.962 7.65099 125.255 9.41906L126.959 10.1006C127.714 8.21122 128.122 6.51284 128.122 5.02803H126.287ZM125.256 9.41535C124.555 11.1477 123.526 13.022 122.158 15.0398L123.678 16.0693C125.099 13.9724 126.196 11.9837 126.957 10.1043L125.256 9.41535ZM122.158 15.041C119.271 19.3148 115.352 23.4316 110.38 27.386L111.523 28.8221C116.609 24.776 120.667 20.5264 123.678 16.0681L122.158 15.041ZM110.138 27.6789C108.752 30.3299 108.079 33.4776 108.079 37.0876H109.914C109.914 33.7028 110.545 30.8615 111.764 28.5293L110.138 27.6789ZM108.079 37.0876C108.079 38.8751 108.654 40.546 109.761 42.0819L111.25 41.0083C110.346 39.7554 109.914 38.4547 109.914 37.0876H108.079ZM109.767 42.0898C110.894 43.6176 112.268 44.5542 113.9 44.5542V42.7192C113.063 42.7192 112.174 42.2614 111.244 41.0004L109.767 42.0898ZM113.9 44.5542C114.994 44.5542 116.402 44.0129 118.031 43.1323C119.7 42.2299 121.741 40.8913 124.146 39.1309L123.062 37.6502C120.689 39.3872 118.724 40.6717 117.158 41.518C115.553 42.3862 114.498 42.7192 113.9 42.7192V44.5542ZM124.163 39.1177L130.267 34.4202L129.147 32.966L123.044 37.6635L124.163 39.1177ZM130.279 34.4102C132.691 32.4856 134.778 31.6275 136.565 31.6275V29.7925C134.191 29.7925 131.707 30.9231 129.135 32.976L130.279 34.4102ZM152.817 21.5207L151.992 21.9213L151.997 21.931L152.817 21.5207ZM152.029 25.841L151.314 25.2657L150.807 25.8953L151.368 26.4775L152.029 25.841ZM154.292 28.0012L153.678 28.6832L153.687 28.6912L153.696 28.699L154.292 28.0012ZM157.001 30.6414L157.685 30.0302L157.681 30.0258L157.001 30.6414ZM157.241 42.5737L156.577 41.94L156.568 41.9494L157.241 42.5737ZM155.286 44.3567L154.725 43.6312L155.616 45.2131L155.286 44.3567ZM163.858 38.9049L164.438 39.6161L164.44 39.6142L163.858 38.9049ZM167.87 35.6132L168.452 36.3226L168.457 36.3181L167.87 35.6132ZM172.533 32.253L172.214 31.3928L172.206 31.3959L172.533 32.253ZM176.545 32.2872L176.11 33.0951L176.116 33.0985L176.123 33.1018L176.545 32.2872ZM177.128 35.9561L177.995 36.2552L177.998 36.2462L177.128 35.9561ZM176.305 37.8077L175.504 37.3594L175.503 37.3621L176.305 37.8077ZM174.316 40.345L174.946 41.0126L174.955 41.0033L174.965 40.9938L174.316 40.345ZM167.321 46.5855L167.91 47.2892L167.911 47.2886L167.321 46.5855ZM160.361 51.4201L160.808 52.2212L160.81 52.22L160.361 51.4201ZM134.507 53.0317L133.983 53.7849L133.984 53.7856L134.507 53.0317ZM132.073 50.7687L131.316 51.2875L131.325 51.3L131.334 51.3122L132.073 50.7687ZM131.696 47.5113L132.476 47.9942L132.481 47.9862L132.486 47.978L131.696 47.5113ZM132.896 45.9683L132.233 45.3341L132.896 45.9683ZM134.61 44.391L134.04 43.6721L134.034 43.677L134.028 43.682L134.61 44.391ZM136.633 42.9852L136.17 42.1934L136.161 42.1984L136.633 42.9852ZM142.017 41.888L141.606 42.7086L141.625 42.718L141.644 42.7264L142.017 41.888ZM143.148 42.5052L143.666 41.7474L143.657 41.7417L143.148 42.5052ZM144.657 37.2591L143.917 37.8017L143.924 37.8112L144.657 37.2591ZM141.708 33.2816L142.505 32.8264L141.862 31.7013L141.014 32.6814L141.708 33.2816ZM138.965 35.8875L138.386 35.1754L138.379 35.1811L138.373 35.1868L138.965 35.8875ZM135.639 38.6992L135.047 37.9984L135.04 38.004L135.639 38.6992ZM129.227 41.5451L129.154 42.4597L129.169 42.4609L129.184 42.4616L129.227 41.5451ZM127.616 36.4704L128.521 36.6213L128.521 36.6165L127.616 36.4704ZM132.484 31.8415L132.979 32.6143L132.987 32.6094L132.484 31.8415ZM133.993 30.8128L133.478 30.0539L133.467 30.0613L133.456 30.069L133.993 30.8128ZM137.628 28.3441L138.143 29.1031L138.545 28.83V28.3441H137.628ZM141.674 21.9322L141.14 21.1855L141.137 21.1877L141.674 21.9322ZM151.997 21.931C152.139 22.2148 152.243 22.6637 152.243 23.338H154.078C154.078 22.5037 153.953 21.741 153.638 21.1104L151.997 21.931ZM152.243 23.338C152.243 23.7627 152.015 24.3945 151.314 25.2657L152.744 26.4163C153.551 25.4131 154.078 24.3763 154.078 23.338H152.243ZM151.368 26.4775C151.982 27.1155 152.754 27.8514 153.678 28.6832L154.906 27.3192C154.001 26.5052 153.264 25.8009 152.69 25.2046L151.368 26.4775ZM153.696 28.699C154.602 29.4723 155.477 30.3247 156.32 31.257L157.681 30.0258C156.787 29.038 155.856 28.1303 154.888 27.3034L153.696 28.699ZM156.316 31.2526C158.338 33.5163 159.238 35.5587 159.238 37.3962H161.073C161.073 34.9363 159.869 32.4755 157.685 30.0302L156.316 31.2526ZM159.238 37.3962C159.238 38.433 158.496 39.9308 156.577 41.94L157.904 43.2075C159.871 41.1478 161.073 39.1939 161.073 37.3962H159.238ZM156.568 41.9494C156.009 42.5518 155.395 43.1125 154.725 43.6312L155.848 45.0822C156.595 44.5038 157.284 43.8758 157.913 43.1981L156.568 41.9494ZM155.616 45.2131C158.125 44.248 161.07 42.3615 164.438 39.6161L163.279 38.1937C159.972 40.8887 157.202 42.6367 154.957 43.5004L155.616 45.2131ZM164.44 39.6142L168.452 36.3225L167.288 34.9039L163.276 38.1956L164.44 39.6142ZM168.457 36.3181C169.615 35.3534 170.568 34.6027 171.321 34.0603C172.095 33.5023 172.594 33.212 172.861 33.11L172.206 31.3959C171.695 31.591 171.028 32.0094 170.248 32.5715C169.446 33.1492 168.457 33.93 167.283 34.9084L168.457 36.3181ZM172.853 33.1131C173.583 32.842 174.192 32.7247 174.693 32.7247V30.8897C173.915 30.8897 173.084 31.0696 172.214 31.3928L172.853 33.1131ZM174.693 32.7247C175.173 32.7247 175.642 32.843 176.11 33.0951L176.98 31.4794C176.259 31.0914 175.494 30.8897 174.693 30.8897V32.7247ZM176.123 33.1018C176.3 33.1937 176.393 33.2924 176.448 33.386C176.505 33.4823 176.553 33.6293 176.553 33.8645H178.388C178.388 33.3682 178.283 32.8866 178.031 32.4571C177.777 32.025 177.407 31.7009 176.967 31.4727L176.123 33.1018ZM176.553 33.8645C176.553 34.4725 176.455 35.0718 176.257 35.666L177.998 36.2462C178.257 35.4688 178.388 34.6737 178.388 33.8645H176.553ZM176.26 35.657C176.048 36.2719 175.796 36.8387 175.504 37.3594L177.105 38.256C177.454 37.6336 177.75 36.9661 177.995 36.2552L176.26 35.657ZM175.503 37.3621C175.097 38.0918 174.493 38.8706 173.667 39.6962L174.965 40.9938C175.877 40.0821 176.598 39.1694 177.107 38.2533L175.503 37.3621ZM173.687 39.6774C171.298 41.9296 168.98 43.9978 166.732 45.8824L167.911 47.2886C170.189 45.3786 172.534 43.2865 174.946 41.0126L173.687 39.6774ZM166.733 45.8818C164.533 47.7221 162.259 49.3009 159.911 50.6202L160.81 52.22C163.263 50.842 165.629 49.1977 167.91 47.2892L166.733 45.8818ZM159.913 50.6191C154.984 53.3725 149.516 54.7544 143.491 54.7544V56.5894C149.81 56.5894 155.588 55.1368 160.808 52.2212L159.913 50.6191ZM143.491 54.7544C140.203 54.7544 137.396 53.919 135.03 52.2778L133.984 53.7856C136.693 55.6646 139.875 56.5894 143.491 56.5894V54.7544ZM135.031 52.2785C134.037 51.5869 133.308 50.8994 132.812 50.2251L131.334 51.3122C131.981 52.1923 132.875 53.0135 133.983 53.7849L135.031 52.2785ZM132.83 50.2498C132.575 49.8778 132.401 49.5738 132.294 49.3331C132.183 49.0834 132.168 48.9545 132.168 48.9171H130.333C130.333 49.314 130.454 49.7108 130.617 50.0784C130.785 50.4549 131.023 50.8595 131.316 51.2875L132.83 50.2498ZM132.168 48.9171C132.168 48.6665 132.248 48.3632 132.476 47.9942L130.916 47.0283C130.55 47.6194 130.333 48.2533 130.333 48.9171H132.168ZM132.486 47.978C132.74 47.5483 133.093 47.0893 133.559 46.6025L132.233 45.3341C131.693 45.8988 131.246 46.4685 130.906 47.0445L132.486 47.978ZM133.559 46.6025C134.033 46.1066 134.577 45.6056 135.193 45.1L134.028 43.682C133.363 44.228 132.764 44.7785 132.233 45.3341L133.559 46.6025ZM135.18 45.1099C135.814 44.6075 136.456 44.1618 137.105 43.772L136.161 42.1984C135.439 42.6315 134.732 43.1231 134.04 43.6721L135.18 45.1099ZM137.097 43.7769C137.873 43.3225 138.526 42.9956 139.061 42.7844C139.609 42.5687 139.976 42.4969 140.199 42.4969V40.6619C139.645 40.6619 139.03 40.8244 138.388 41.0772C137.735 41.3347 136.994 41.7107 136.17 42.1935L137.097 43.7769ZM140.199 42.4969C140.948 42.4969 141.384 42.5975 141.606 42.7086L142.427 41.0673C141.826 40.767 141.051 40.6619 140.199 40.6619V42.4969ZM141.644 42.7264C142.012 42.8901 142.343 43.0713 142.639 43.2686L143.657 41.7417C143.267 41.4818 142.844 41.2516 142.389 41.0495L141.644 42.7264ZM142.631 43.2629C143.119 43.5965 143.561 43.864 143.949 44.0515C144.313 44.2272 144.73 44.3828 145.137 44.3828V42.5477C145.156 42.5477 145.046 42.5433 144.747 42.3989C144.473 42.2664 144.114 42.0539 143.666 41.7475L142.631 43.2629ZM145.137 44.3828C145.838 44.3828 146.492 44.128 146.932 43.5272C147.332 42.9798 147.46 42.27 147.46 41.5451H145.625C145.625 42.1003 145.519 42.3506 145.451 42.4432C145.422 42.4825 145.373 42.5477 145.137 42.5477V44.3828ZM147.46 41.5451C147.46 40.0553 146.686 38.4275 145.39 36.7069L143.924 37.8112C145.142 39.428 145.625 40.6575 145.625 41.5451H147.46ZM145.397 36.7165C144.883 36.0161 144.346 35.3276 143.786 34.6511L142.373 35.821C142.91 36.4703 143.425 37.1305 143.917 37.8016L145.397 36.7165ZM143.786 34.6511C143.266 34.0222 142.84 33.4139 142.505 32.8264L140.911 33.7368C141.307 34.4295 141.796 35.1241 142.373 35.821L143.786 34.6511ZM141.014 32.6814C140.325 33.4776 139.452 34.3094 138.386 35.1754L139.544 36.5996C140.672 35.6827 141.628 34.7772 142.402 33.8818L141.014 32.6814ZM138.373 35.1868L135.047 37.9985L136.231 39.3999L139.557 36.5882L138.373 35.1868ZM135.04 38.004C132.815 39.9209 130.901 40.7044 129.27 40.6286L129.184 42.4616C131.485 42.5686 133.846 41.4549 136.238 39.3943L135.04 38.004ZM129.3 40.6305C129.139 40.6176 128.961 40.5548 128.778 40.1482C128.572 39.6903 128.43 38.916 128.43 37.7391H126.595C126.595 39.0081 126.739 40.0911 127.105 40.9019C127.493 41.7639 128.172 42.3812 129.154 42.4597L129.3 40.6305ZM128.43 37.7391C128.43 37.3532 128.461 36.9809 128.521 36.6213L126.71 36.3196C126.633 36.7829 126.595 37.2563 126.595 37.7391H128.43ZM128.521 36.6165C128.543 36.4844 128.639 36.2405 128.936 35.875C129.227 35.5175 129.665 35.0989 130.274 34.6203L129.14 33.1773C128.469 33.7044 127.919 34.2174 127.512 34.7171C127.112 35.2088 126.803 35.7478 126.71 36.3243L128.521 36.6165ZM130.274 34.6203C131.554 33.6146 132.449 32.9537 132.979 32.6143L131.99 31.0687C131.377 31.4608 130.42 32.1714 129.14 33.1773L130.274 34.6203ZM132.987 32.6094C133.588 32.2159 134.104 31.8647 134.53 31.5567L133.456 30.069C133.059 30.3553 132.569 30.6899 131.982 31.0736L132.987 32.6094ZM134.509 31.5718L138.143 29.1031L137.112 27.5851L133.478 30.0539L134.509 31.5718ZM138.545 28.3441C138.545 26.4198 139.643 24.5254 142.21 22.6767L141.137 21.1877C138.309 23.2249 136.71 25.6052 136.71 28.3441H138.545ZM142.207 22.6788C144.651 20.9331 147.006 20.1066 149.286 20.1066V18.2716C146.537 18.2716 143.817 19.2739 141.14 21.1856L142.207 22.6788ZM149.286 20.1066C149.931 20.1066 150.444 20.261 150.863 20.5377C151.286 20.8172 151.671 21.2591 151.992 21.9213L153.643 21.1201C153.21 20.2279 152.628 19.5041 151.874 19.0063C151.116 18.5058 150.241 18.2716 149.286 18.2716V20.1066ZM220.091 34.6874L219.256 34.3077L219.253 34.3148L220.091 34.6874ZM217.691 38.1848L218.347 38.8267L218.353 38.8197L217.691 38.1848ZM214.056 41.5451L213.462 40.846L213.456 40.851L214.056 41.5451ZM209.29 45.2139L208.764 44.4623L208.76 44.4654L209.29 45.2139ZM196.295 52.4145L195.949 51.5648L195.947 51.5656L196.295 52.4145ZM170.167 52.7231L170.691 51.9698L170.69 51.9693L170.167 52.7231ZM173.288 31.3615L172.699 30.6572L172.699 30.6574L173.288 31.3615ZM188.957 22.7551L188.664 21.8857L188.663 21.886L188.957 22.7551ZM203.461 22.4122L204.001 21.6701L203.992 21.664L203.461 22.4122ZM198.832 36.4704L198.274 35.7421L198.267 35.7474L198.832 36.4704ZM196.844 37.9105L196.341 37.1426L196.335 37.1471L196.844 37.9105ZM195.609 38.7335L195.1 37.97L195.092 37.9758L195.083 37.9818L195.609 38.7335ZM185.186 44.1167L184.826 43.2727L183.046 44.0317L184.76 44.9295L185.186 44.1167ZM192.558 44.8025L192.298 43.9225L192.292 43.9242L192.558 44.8025ZM199.964 41.5794L200.395 42.3893L200.4 42.3868L199.964 41.5794ZM204.318 39.042L203.834 38.2631L203.832 38.264L204.318 39.042ZM212.822 32.8016L213.43 33.4884L213.438 33.4815L213.446 33.4744L212.822 32.8016ZM217.622 30.0242L217.342 29.1507L217.329 29.1547L217.317 29.159L217.622 30.0242ZM181.482 39.3506L180.599 39.598L180.901 40.6763L181.899 40.1683L181.482 39.3506ZM183.368 38.3906L183.785 39.2083L183.791 39.2051L183.368 38.3906ZM185.014 37.4991L185.469 38.2957L185.471 38.2947L185.014 37.4991ZM193.106 29.6128L192.41 30.2099L192.418 30.22L192.427 30.23L193.106 29.6128ZM189.3 28.9956L189.034 28.1174L189.027 28.1198L189.3 28.9956ZM187.071 29.9556L187.492 30.7713L187.501 30.7663L187.511 30.7611L187.071 29.9556ZM184.877 31.3958L185.45 32.1122L185.453 32.11L184.877 31.3958ZM183.06 33.1787L183.762 33.7695L183.769 33.7611L183.06 33.1787ZM219.302 30.6331C219.68 30.6331 219.803 30.7343 219.851 30.7881C219.917 30.8625 220.031 31.0666 220.031 31.5672H221.866C221.866 30.8334 221.705 30.1118 221.223 29.5689C220.722 29.0055 220.022 28.7981 219.302 28.7981V30.6331ZM220.031 31.5672C220.031 32.1993 219.805 33.0994 219.256 34.3078L220.926 35.0671C221.52 33.7609 221.866 32.581 221.866 31.5672H220.031ZM219.253 34.3148C218.752 35.4409 218.016 36.5199 217.028 37.55L218.353 38.8197C219.469 37.6554 220.333 36.4027 220.93 35.0601L219.253 34.3148ZM217.035 37.5431C216.007 38.594 214.816 39.6949 213.462 40.846L214.651 42.2442C216.039 41.0636 217.272 39.9245 218.347 38.8266L217.035 37.5431ZM213.456 40.851C212.136 41.992 210.573 43.1958 208.764 44.4623L209.816 45.9656C211.665 44.6719 213.279 43.4298 214.656 42.2392L213.456 40.851ZM208.76 44.4654C206.981 45.7263 205.006 46.9792 202.834 48.2238L203.746 49.8161C205.962 48.5462 207.988 47.2618 209.821 45.9625L208.76 44.4654ZM202.834 48.2238C200.677 49.4597 198.382 50.5736 195.949 51.5648L196.641 53.2642C199.146 52.2438 201.514 51.0947 203.746 49.8161L202.834 48.2238ZM195.947 51.5656C190.577 53.7673 185.404 54.8572 180.42 54.8572V56.6923C185.676 56.6923 191.086 55.542 196.643 53.2634L195.947 51.5656ZM180.42 54.8572C176.679 54.8572 173.448 53.887 170.691 51.9698L169.644 53.4764C172.738 55.6281 176.342 56.6923 180.42 56.6923V54.8572ZM170.69 51.9693C167.811 49.9709 166.49 47.6438 166.49 44.9739H164.655C164.655 48.3845 166.397 51.2235 169.644 53.4769L170.69 51.9693ZM166.49 44.9739C166.49 40.565 168.853 36.262 173.876 32.0656L172.699 30.6574C167.435 35.0558 164.655 39.8278 164.655 44.9739H166.49ZM173.876 32.0657C178.215 28.4421 183.336 25.6259 189.251 23.6242L188.663 21.886C182.555 23.9532 177.229 26.8746 172.699 30.6572L173.876 32.0657ZM189.251 23.6244C192.858 22.4071 195.85 21.821 198.249 21.821V19.986C195.575 19.986 192.372 20.6343 188.664 21.8857L189.251 23.6244ZM198.249 21.821C200.152 21.821 201.695 22.2839 202.93 23.1605L203.992 21.664C202.393 20.529 200.461 19.986 198.249 19.986V21.821ZM202.922 23.1542C204.195 24.0804 204.807 25.28 204.807 26.8354H206.642C206.642 24.6877 205.745 22.9385 204.001 21.6702L202.922 23.1542ZM204.807 26.8354C204.807 29.2688 202.846 32.2392 198.274 35.7421L199.39 37.1988C204.008 33.6611 206.642 30.2082 206.642 26.8354H204.807ZM198.267 35.7474C197.551 36.3075 196.909 36.7716 196.342 37.1426L197.346 38.6785C197.967 38.2723 198.651 37.7763 199.397 37.1935L198.267 35.7474ZM196.335 37.1471L195.1 37.97L196.118 39.4969L197.353 38.674L196.335 37.1471ZM195.083 37.9818C192.875 39.5273 189.47 41.2923 184.826 43.2727L185.546 44.9607C190.228 42.9637 193.771 41.1399 196.135 39.4851L195.083 37.9818ZM184.76 44.9295C186.291 45.7316 187.775 46.1658 189.197 46.1658V44.3307C188.151 44.3307 186.96 44.0105 185.611 43.3039L184.76 44.9295ZM189.197 46.1658C190.525 46.1658 191.737 46.009 192.823 45.6808L192.292 43.9242C191.412 44.1903 190.384 44.3307 189.197 44.3307V46.1658ZM192.818 45.6824C193.869 45.3718 195.037 44.9342 196.319 44.3748L195.585 42.6929C194.353 43.2306 193.258 43.6388 192.298 43.9226L192.818 45.6824ZM196.319 44.3748C197.601 43.8152 198.96 43.153 200.395 42.3893L199.533 40.7694C198.133 41.5144 196.817 42.1552 195.585 42.6929L196.319 44.3748ZM200.4 42.3868C201.858 41.5999 203.326 40.7442 204.805 39.8201L203.832 38.264C202.385 39.1686 200.95 40.0045 199.528 40.7719L200.4 42.3868ZM204.803 39.821C208.107 37.7646 210.985 35.6544 213.43 33.4884L212.214 32.1147C209.859 34.2005 207.067 36.2506 203.834 38.2631L204.803 39.821ZM213.446 33.4744C214.595 32.4092 216.08 31.5417 217.928 30.8894L217.317 29.159C215.279 29.8782 213.564 30.8624 212.198 32.1288L213.446 33.4744ZM217.903 30.8977C218.486 30.7104 218.947 30.6331 219.302 30.6331V28.7981C218.697 28.7981 218.039 28.9265 217.342 29.1507L217.903 30.8977ZM181.899 40.1683L183.785 39.2082L182.952 37.5729L181.066 38.533L181.899 40.1683ZM183.791 39.2051C184.416 38.8807 184.976 38.5775 185.469 38.2957L184.559 36.7024C184.092 36.9692 183.555 37.2604 182.946 37.576L183.791 39.2051ZM185.471 38.2947C187.784 36.9668 189.606 35.8892 190.933 35.0637C192.224 34.261 193.133 33.6459 193.537 33.2563L192.264 31.9354C192.028 32.163 191.302 32.6737 189.964 33.5053C188.663 34.3143 186.862 35.3797 184.557 36.7034L185.471 38.2947ZM193.537 33.2563C193.872 32.9336 194.151 32.6358 194.352 32.3695C194.453 32.2363 194.549 32.0915 194.624 31.9396C194.693 31.7984 194.778 31.5833 194.778 31.3272H192.943C192.943 31.1854 192.988 31.1088 192.977 31.1305C192.972 31.1414 192.948 31.1838 192.889 31.2621C192.77 31.4187 192.569 31.6409 192.264 31.9354L193.537 33.2563ZM194.778 31.3272C194.778 30.9135 194.667 30.5017 194.498 30.1085L192.811 30.8314C192.917 31.0783 192.943 31.238 192.943 31.3272H194.778ZM194.498 30.1085C194.322 29.697 194.084 29.3244 193.785 28.9956L192.427 30.23C192.586 30.404 192.714 30.6028 192.811 30.8314L194.498 30.1085ZM193.803 29.0156C193.147 28.2504 192.331 27.7352 191.357 27.7352V29.5702C191.619 29.5702 191.968 29.6951 192.41 30.2099L193.803 29.0156ZM191.357 27.7352C190.629 27.7352 189.852 27.8696 189.034 28.1175L189.566 29.8737C190.257 29.6644 190.851 29.5702 191.357 29.5702V27.7352ZM189.027 28.1198C188.231 28.3683 187.433 28.7133 186.632 29.1501L187.511 30.7611C188.219 30.3751 188.906 30.08 189.574 29.8713L189.027 28.1198ZM186.651 29.14C185.838 29.559 185.055 30.0739 184.301 30.6815L185.453 32.11C186.117 31.5747 186.796 31.1295 187.492 30.7713L186.651 29.14ZM184.304 30.6793C183.571 31.2654 182.919 31.9041 182.351 32.5964L183.769 33.7611C184.252 33.1732 184.811 32.6234 185.45 32.1122L184.304 30.6793ZM182.358 32.5881C181.105 34.0768 180.325 35.5337 180.325 36.9162H182.16C182.16 36.1956 182.591 35.1609 183.762 33.7694L182.358 32.5881ZM180.325 36.9162C180.325 37.9975 180.405 38.9069 180.599 39.598L182.366 39.1032C182.239 38.6514 182.16 37.9378 182.16 36.9162H180.325ZM268.883 39.2821L269.538 39.9252L269.556 39.9069L269.573 39.8876L268.883 39.2821ZM266.929 41.2708L267.578 41.9196L267.583 41.9139L266.929 41.2708ZM250.196 53.1003L250.517 53.9599L250.519 53.9592L250.196 53.1003ZM243.201 52.9288L242.566 53.5905L242.575 53.5989L243.201 52.9288ZM240.424 47.5113L241.309 47.2678L241.309 47.2673L240.424 47.5113ZM239.601 44.5282L240.486 44.2842L240.161 43.1068L239.12 43.7466L239.601 44.5282ZM232.298 49.0199L232.752 49.8174L232.765 49.8097L232.778 49.8015L232.298 49.0199ZM228.08 51.4201L228.52 52.2256L228.527 52.2217L228.534 52.2176L228.08 51.4201ZM208.707 51.7973L209.402 51.1981L209.398 51.1936L208.707 51.7973ZM209.29 35.4075L208.648 34.7523L208.648 34.7526L209.29 35.4075ZM225.852 25.9782L225.529 25.1191L225.527 25.1202L225.852 25.9782ZM242.379 27.9669L242.74 28.8103L242.744 28.8086L242.379 27.9669ZM238.058 29.8185L238.412 30.6651L238.42 30.6618L238.058 29.8185ZM224 38.1506L224.631 38.8172L224.639 38.8094L224 38.1506ZM232.846 37.7734L233.312 38.5638L233.313 38.5635L232.846 37.7734ZM235.692 36.0933L236.159 36.8834L236.165 36.8797L235.692 36.0933ZM251.774 35.4418L252.641 35.1416L252.637 35.132L252.634 35.1225L251.774 35.4418ZM252.356 37.2591L251.477 37.5197L251.479 37.5289L252.356 37.2591ZM252.905 38.8706L253.766 38.5542L253.762 38.544L252.905 38.8706ZM255.442 40.0707L255.865 40.8852L255.876 40.8792L255.888 40.8728L255.442 40.0707ZM257.465 38.802L257.985 39.5581L257.99 39.5548L257.465 38.802ZM259.797 37.0876L260.357 37.8141L260.364 37.8089L260.371 37.8035L259.797 37.0876ZM263.946 33.7616L264.52 34.4775L264.526 34.4723L264.533 34.4669L263.946 33.7616ZM272.244 30.0845C272.295 30.0845 272.295 30.0942 272.274 30.0824C272.252 30.0701 272.256 30.0622 272.277 30.0977C272.336 30.1961 272.423 30.462 272.423 31.0186H274.258C274.258 30.3408 274.163 29.6809 273.856 29.1621C273.504 28.5681 272.926 28.2495 272.244 28.2495V30.0845ZM272.423 31.0186C272.423 31.8745 272.121 32.9412 271.419 34.2433C270.72 35.5395 269.652 37.0164 268.194 38.6766L269.573 39.8876C271.086 38.1646 272.247 36.5728 273.034 35.1145C273.818 33.662 274.258 32.2886 274.258 31.0186H272.423ZM268.229 38.6389L266.275 40.6277L267.583 41.9139L269.538 39.9252L268.229 38.6389ZM266.28 40.622C260.41 46.4918 254.94 50.3385 249.874 52.2413L250.519 53.9592C255.921 51.9303 261.607 47.8906 267.578 41.9196L266.28 40.622ZM249.875 52.2407C246.691 53.4291 244.836 53.2012 243.828 52.2588L242.575 53.5989C244.402 55.3081 247.209 55.1945 250.517 53.9599L249.875 52.2407ZM243.837 52.2672C242.842 51.3107 241.974 49.6864 241.309 47.2678L239.539 47.7547C240.245 50.3194 241.23 52.3067 242.566 53.5905L243.837 52.2672ZM241.309 47.2673L240.486 44.2842L238.717 44.7722L239.54 47.7553L241.309 47.2673ZM239.12 43.7466L231.817 48.2384L232.778 49.8015L240.082 45.3097L239.12 43.7466ZM231.844 48.2225L227.626 50.6227L228.534 52.2176L232.752 49.8174L231.844 48.2225ZM227.641 50.6146C222.616 53.3556 219.025 54.6172 216.765 54.6172V56.4523C219.534 56.4523 223.487 54.9708 228.52 52.2256L227.641 50.6146ZM216.765 54.6172C213.815 54.6172 211.381 53.4924 209.402 51.1981L208.013 52.3965C210.331 55.0854 213.269 56.4523 216.765 56.4523V54.6172ZM209.398 51.1936C207.486 49.0053 206.539 46.4878 206.539 43.6024H204.704C204.704 46.9346 205.814 49.8804 208.016 52.401L209.398 51.1936ZM206.539 43.6024C206.539 40.816 207.64 38.3125 209.933 36.0624L208.648 34.7526C206.049 37.3029 204.704 40.2626 204.704 43.6024H206.539ZM209.933 36.0627C213.299 32.762 218.685 29.6741 226.177 26.8362L225.527 25.1202C217.932 27.997 212.276 31.1953 208.648 34.7523L209.933 36.0627ZM226.174 26.8373C233.267 24.1773 238.906 22.884 243.133 22.884V21.0489C238.582 21.0489 232.7 22.4301 225.529 25.1191L226.174 26.8373ZM243.133 22.884C243.738 22.884 244.022 23.0328 244.161 23.1689C244.296 23.3024 244.444 23.5745 244.444 24.1609H246.279C246.279 23.2844 246.055 22.4592 245.448 21.8613C244.843 21.2659 244.014 21.0489 243.133 21.0489V22.884ZM244.444 24.1609C244.444 25.0741 244.263 25.5904 244.053 25.8629L245.505 26.985C246.071 26.2517 246.279 25.2593 246.279 24.1609H244.444ZM244.053 25.8629C243.816 26.1693 243.205 26.6081 242.013 27.1252L242.744 28.8086C243.975 28.2742 244.964 27.6844 245.505 26.985L244.053 25.8629ZM242.017 27.1236L237.697 28.9751L238.42 30.6618L242.74 28.8103L242.017 27.1236ZM237.704 28.9719C231.26 31.6648 226.453 34.4955 223.361 37.4917L224.639 38.8094C227.491 36.0452 232.056 33.3212 238.412 30.6651L237.704 28.9719ZM223.369 37.484C222.439 38.3646 221.814 39.3666 221.814 40.4822H223.649C223.649 40.089 223.87 39.5366 224.631 38.8171L223.369 37.484ZM221.814 40.4822C221.814 41.1544 222.111 41.7423 222.701 42.1097C223.218 42.4321 223.877 42.5312 224.549 42.5312V40.6961C224.008 40.6961 223.759 40.6067 223.671 40.5519C223.64 40.5328 223.645 40.5285 223.654 40.5441C223.661 40.5575 223.649 40.5462 223.649 40.4822H221.814ZM224.549 42.5312C224.988 42.5312 225.49 42.4175 226.018 42.2466C226.56 42.0713 227.189 41.8153 227.9 41.4863C229.322 40.828 231.129 39.8508 233.312 38.5638L232.38 36.983C230.22 38.2562 228.473 39.1991 227.129 39.8209C226.457 40.1319 225.901 40.3559 225.453 40.5007C224.993 40.6498 224.704 40.6961 224.549 40.6961V42.5312ZM233.313 38.5635L236.159 36.8834L235.226 35.3031L232.38 36.9833L233.313 38.5635ZM236.165 36.8797C240.525 34.2589 244.044 33.0333 246.767 33.0333V31.1983C243.548 31.1983 239.683 32.6244 235.22 35.3068L236.165 36.8797ZM246.767 33.0333C247.89 33.0333 248.747 33.2799 249.397 33.7115C250.042 34.1401 250.557 34.8004 250.913 35.761L252.634 35.1225C252.167 33.8658 251.436 32.8631 250.413 32.1831C249.393 31.506 248.159 31.1983 246.767 31.1983V33.0333ZM250.906 35.7419C251.108 36.3229 251.298 36.9155 251.477 37.5197L253.236 36.9984C253.049 36.3683 252.851 35.7493 252.641 35.1416L250.906 35.7419ZM251.479 37.5289C251.667 38.1385 251.856 38.6951 252.048 39.1972L253.762 38.544C253.588 38.086 253.412 37.5682 253.233 36.9892L251.479 37.5289ZM252.044 39.187C252.258 39.7699 252.48 40.266 252.72 40.6324C252.839 40.8153 252.987 41.0046 253.173 41.1564C253.361 41.3094 253.642 41.4683 254.002 41.4683V39.6332C254.202 39.6332 254.318 39.7221 254.334 39.7351C254.348 39.7468 254.32 39.7261 254.256 39.629C254.13 39.4354 253.964 39.0914 253.766 38.5542L252.044 39.187ZM254.002 41.4683C254.578 41.4683 255.225 41.217 255.865 40.8852L255.02 39.2562C254.426 39.5644 254.112 39.6332 254.002 39.6332V41.4683ZM255.888 40.8728C256.536 40.5127 257.235 40.0735 257.985 39.5581L256.946 38.0459C256.232 38.5363 255.583 38.9429 254.997 39.2686L255.888 40.8728ZM257.99 39.5548C258.758 39.0198 259.547 38.4394 260.357 37.8141L259.237 36.3611C258.447 36.9702 257.682 37.5328 256.941 38.0493L257.99 39.5548ZM260.371 37.8035L264.52 34.4775L263.372 33.0458L259.223 36.3717L260.371 37.8035ZM264.533 34.4669C266.349 32.9555 267.911 31.8459 269.225 31.1184C270.556 30.3813 271.547 30.0845 272.244 30.0845V28.2495C271.088 28.2495 269.771 28.7185 268.336 29.513C266.884 30.317 265.223 31.5047 263.359 33.0564L264.533 34.4669Z" fill="#D6E5E1" mask="url(#path-1-outside-1_7_354)"/>
</svg>
